<?xml version="1.0" encoding="utf-8"?>
<!-- Generator: Adobe Illustrator 17.0.0, SVG Export Plug-In . SVG Version: 6.00 Build 0)  -->
<!DOCTYPE svg PUBLIC "-//W3C//DTD SVG 1.1//EN" "http://www.w3.org/Graphics/SVG/1.1/DTD/svg11.dtd">
<svg version="1.1" id="Layer_1" xmlns="http://www.w3.org/2000/svg" xmlns:xlink="http://www.w3.org/1999/xlink" x="0px" y="0px"
	 width="647.5px" height="170px" viewBox="0 0 647.5 170" enable-background="new 0 0 647.5 170" xml:space="preserve">
<rect x="139.35" y="91.237" opacity="0.7" fill="#39B54A" width="142.65" height="21.655"/>
<rect x="281.75" y="91.237" opacity="0.7" fill="#F9ED32" width="22.75" height="21.655"/>
<rect x="312.333" y="91.237" opacity="0.7" fill="#F9ED32" width="43.5" height="21.655"/>
<rect x="359.979" y="91.237" opacity="0.7" fill="#F15A29" width="43.687" height="21.655"/>
<rect x="407.745" y="91.237" opacity="0.7" fill="#F9ED32" width="43.921" height="21.655"/>
<rect x="453.917" y="91.237" opacity="0.7" fill="#F9ED32" width="42.416" height="21.655"/>
<rect x="498.986" y="91.237" opacity="0.7" fill="#F9ED32" width="43.278" height="21.655"/>
<rect x="147.35" y="9.098" fill="none" width="448.029" height="22.401"/>
<text transform="matrix(1 0 0 1 147.3506 19.3431)"><tspan x="0" y="0" font-family="'Monospace'" font-size="13">DDDDDDDDEEEEEEEEEEEE  EEEE  FFFF  FFFF </tspan><tspan x="304.243" y="0" font-family="'Monospace'" font-size="13"> </tspan><tspan x="311.524" y="0" font-family="'Monospace'" font-size="13">FFFF  FFFF </tspan></text>
<rect x="147.35" y="31.5" fill="none" width="427.867" height="22.401"/>
<text transform="matrix(1 0 0 1 147.3506 41.7435)"><tspan x="0" y="0" font-family="'Monospace'" font-size="13">89ABCDEF0123456789AB  CDEF  0123  4567 </tspan><tspan x="304.243" y="0" font-family="'Monospace'" font-size="13" letter-spacing="-1"> </tspan><tspan x="311.004" y="0" font-family="'Monospace'" font-size="13">89AB  CDEF</tspan></text>
<rect x="147.35" y="50.168" fill="none" width="415.173" height="22.401"/>
<text transform="matrix(1 0 0 1 147.3506 60.4119)" font-family="'Monospace'" font-size="13">buffer                sfp   ret   a     b     c</text>
<rect x="58.017" y="10.098" fill="none" width="68.816" height="42.632"/>
<text transform="matrix(1 0 0 1 58.0168 20.038)"><tspan x="0" y="0" font-family="'MyriadPro-Bold'" font-size="14">LOW </tspan><tspan x="0" y="16.801" font-family="'MyriadPro-Bold'" font-size="14">MEMORY</tspan></text>
<rect x="58.017" y="132.432" fill="none" width="68.816" height="42.632"/>
<text transform="matrix(1 0 0 1 58.0168 142.3713)"><tspan x="0" y="0" font-family="'MyriadPro-Bold'" font-size="14">TOP OF  </tspan><tspan x="0" y="16.801" font-family="'MyriadPro-Bold'" font-size="14">STACK</tspan></text>
<rect x="575.217" y="132.432" fill="none" width="87.867" height="42.632"/>
<text transform="matrix(1 0 0 1 575.2178 142.3713)"><tspan x="0" y="0" font-family="'MyriadPro-Bold'" font-size="14">BOTTOM  </tspan><tspan x="0" y="16.801" font-family="'MyriadPro-Bold'" font-size="14">OF STACK </tspan></text>
<rect x="8.684" y="91.576" fill="none" width="51.036" height="31.617"/>
<text transform="matrix(1 0 0 1 8.6836 99.7385)"><tspan x="0" y="0" font-family="'MyriadPro-Bold'" font-size="11.4965">STACK  </tspan><tspan x="0" y="13.796" font-family="'MyriadPro-Bold'" font-size="11.4965">GROWTH</tspan></text>
<rect x="575.217" y="10.098" fill="none" width="72.816" height="37.866"/>
<text transform="matrix(1 0 0 1 575.2173 20.038)"><tspan x="0" y="0" font-family="'MyriadPro-Bold'" font-size="14">HIGH </tspan><tspan x="0" y="16.801" font-family="'MyriadPro-Bold'" font-size="14">MEMORY</tspan></text>
<rect x="139.35" y="95.97" fill="none" width="440.483" height="20.03"/>
<text transform="matrix(1 0 0 1 139.3501 105.8197)"><tspan x="0" y="0" font-family="'Monospace'" font-size="12.5">[JJSSSSSSSSSSSSSSCCss]</tspan><tspan x="165.022" y="0" font-family="'Monospace'" font-size="12.5" letter-spacing="-6"> </tspan><tspan x="166.523" y="0" font-family="'Monospace'" font-size="12.5" letter-spacing="-1"> </tspan><tspan x="172.774" y="0" font-family="'Monospace'" font-size="12.5">[ssss</tspan><tspan x="210.279" y="0" font-family="'Monospace'" font-size="12.5" letter-spacing="1">]</tspan><tspan x="219.28" y="0" font-family="'Monospace'" font-size="12.5">[0xD8</tspan><tspan x="256.785" y="0" font-family="'Monospace'" font-size="12.5" letter-spacing="3">]</tspan><tspan x="267.286" y="0" font-family="'Monospace'" font-size="12.5">[</tspan><tspan x="275.037" y="0" font-family="'Monospace'" font-size="12.5">0x01]</tspan><tspan x="312.542" y="0" font-family="'Monospace'" font-size="12.5" letter-spacing="-6"> </tspan><tspan x="313.542" y="0" font-family="'Monospace'" font-size="12.5" letter-spacing="-1">[</tspan><tspan x="319.793" y="0" font-family="'Monospace'" font-size="12.5">0x02</tspan><tspan x="349.797" y="0" font-family="'Monospace'" font-size="12.5" letter-spacing="1">]</tspan><tspan x="359.048" y="0" font-family="'Monospace'" font-size="12.5">[0x03]</tspan></text>
<g>
	<g>
		
			<line fill="none" stroke="#000000" stroke-width="2" stroke-miterlimit="10" x1="130.833" y1="102.064" x2="76.954" y2="102.064"/>
		<g>
			<polygon points="62.833,102.064 82.732,93.933 78.01,102.064 82.732,110.193 			"/>
		</g>
	</g>
</g>
<g opacity="0.7">
	<g>
		<polyline fill="none" stroke="#F15A29" stroke-width="0.977" stroke-miterlimit="10" points="380.333,110.075 380.333,140.667 
			149.9,140.667 149.9,115.907 		"/>
		<g>
			<polygon fill="#F15A29" points="153.518,118.651 149.9,117.114 146.282,118.651 149.9,110.075 			"/>
		</g>
	</g>
</g>
<g opacity="0.7">
	<g>
		<polyline fill="none" stroke="#1C75BC" stroke-width="0.9881" stroke-miterlimit="10" points="271.25,115.974 271.25,154.763 
			157.491,154.763 157.491,110.075 		"/>
		<g>
			<polygon fill="#1C75BC" points="267.591,118.749 271.25,117.195 274.909,118.749 271.25,110.075 			"/>
		</g>
	</g>
</g>
<g opacity="0.7">
	<g>
		<polyline fill="none" stroke="#009444" stroke-width="0.9805" stroke-miterlimit="10" points="279,110.075 279,165.278 
			165.414,165.278 165.414,115.928 		"/>
		<g>
			<polygon fill="#009444" points="169.045,118.682 165.414,117.14 161.783,118.682 165.414,110.075 			"/>
		</g>
	</g>
</g>
</svg>
