<?xml version="1.0" encoding="UTF-8" standalone="no"?>
<!-- initially Created with Inkscape, then hand edited -->

<svg
   xmlns="http://www.w3.org/2000/svg"
   xmlns:svg="http://www.w3.org/2000/svg"
   xmlns:xlink="http://www.w3.org/1999/xlink"
   xmlns:sodipodi="http://sodipodi.sourceforge.net/DTD/sodipodi-0.dtd"
   xmlns:inkscape="http://www.inkscape.org/namespaces/inkscape"
   id="svg3799"
   version="1.1">
  <g
     inkscape:label="Layer 1"
     inkscape:groupmode="layer"
     id="layer1"
     style="display:inline">
    <rect
       id="greenrect"
       style="fill:none;stroke:#00af00;stroke-width:2;"
       width="330"
       height="170"
       x="200"
       y="150" />
    <rect
       id="redrect"
       style="fill:none;stroke:#ff0000;stroke-width:2;"
       width="200"
       height="100"
       x="260"
       y="175"
       ry="0" />
    <rect id="blackrect"
       style="fill:none;stroke:#000000;stroke-width:2;"
       width="90"
       height="30"
       x="320"
       y="215" />
    <path
       id="blackvertical"
       style="stroke:#000000;stroke-width:1;marker-end:url(#DotL)"
       d="m 360,230 0,120 1,0"/>
    <path
       id="blackprocess"
       style="fill:#000000;fill-opacity:1;stroke:#000000;stroke-width:1;"
       d="m 367,350 a 7,7 1 1 1 -10,0 z" />
    <path
        id="reddoor"
        d="m 360,175 30,0 0,0"
        style="stroke:#ff0000;stroke-width:6;" />
    <path
       id="greendoor"
       d="m 360,150 30,0 0,0" 
       style="stroke:#00ff00;stroke-width:6;" />
    <path id="redprocess1" sodipodi:type="arc"
       sodipodi:rx="8"
       sodipodi:ry="8"
       d="m 40,190 a 8,8 0 1 1 -16,0 8,8 0 1 1 16,0 z"
       style="fill:#ff0000;fill-opacity:1;stroke:#000000;stroke-width:1"
       transform="matrix(0.5,0,0,0.5,310,90)" />
    <path id="redprocess2" sodipodi:type="arc"
       d="m 40,190 a 8,8 0 1 1 -16,0 8,8 0 1 1 16,0 z"
       sodipodi:ry="8"
       sodipodi:rx="8"
       style="fill:#ff0000;fill-opacity:1;stroke:#000000;stroke-width:1"
       transform="matrix(0.5,0,0,0.5,330,100)" />
    <path id="redprocess3" sodipodi:type="arc"
       sodipodi:rx="8"
       sodipodi:ry="8"
       d="m 40,190 a 8,8 0 1 1 -16,0 8,8 0 1 1 16,0 z"
       style="fill:#ff0000;fill-opacity:1;stroke:#000000;stroke-width:1"
       transform="matrix(0.5,0,0,0.5,360,95)" />
    <path
       id="blueprocess1"
       sodipodi:type="arc"
       style="fill:#00ffff;fill-opacity:1;stroke:#000000;stroke-width:1;"
       sodipodi:rx="8"
       sodipodi:ry="8"
       d="m 40,200 a 8,8 0 1 1 -16,0 8,8 0 1 1 16,0 z"
       transform="matrix(0.5,0,0,0.5,350,35)" />
    <path
       id="blueprocess2"
       style="fill:#00ffff;fill-opacity:1;stroke:#000000;stroke-width:1;"
       d="m 40,200 a 8,8 0 1 1 -16,0 8,8 0 1 1 16,0 z"
       transform="matrix(0.5,0,0,0.5,365,25)" />
    <path
       id="blueprocess3"
       style="fill:#00ffff;fill-opacity:1;stroke:#000000;stroke-width:1;"
       d="m 40,200 a 8,8 0 1 1 -16,0 8,8 0 1 1 16,0 z"
       transform="matrix(0.5,0,0,0.5,370,15)" />
    <path
       id="blueprocess4"
       style="fill:#00ffff;fill-opacity:1;stroke:#000000;stroke-width:1;"
       d="m 40,200 a 8,8 0 1 1 -16,0 8,8 0 1 1 16,0 z"
       transform="matrix(0.5,0,0,0.5,340,5)" />
  </g>
  <circle cx="340" cy="200" r="4" stroke="black" stroke-width="1" fill="#000fff" />
  <rect cx="340" cy="200" width="300" height="100" stroke="black" style="fill:#00ff00;stroke-width:1;" />
<rect x="50" y="20" width="150" height="150"
  style="fill:blue;stroke:pink;stroke-width:5;fill-opacity:0.1;stroke-opacity:0.9" />
</svg>
